# xmcd
#
# Track frame offsets:
#	150
#	21488
#	37581
#	54036
#	71150
#	98400
#	119278
#	135190
#	151664
#	172151
#	191624
#	212467
#	231649
#
# Disc length: 3370 seconds
#
# Revision: 1
# Processed by: cddbd v1.4PL0 Copyright (c) Steve Scherf et al.
# Submitted via: audiograbber 1.81.03
#
DISCID=a10d280d
DTITLE=Memo Gonzales And The Bluescasters - Big Time In Big D
DYEAR=2003
DGENRE=Blues
TTITLE0=Must Be Love
TTITLE1=The Look Of A Cheater
TTITLE2=What You're Doin' To Me
TTITLE3=It's Been Awhile
TTITLE4=Wages Of My Sins
TTITLE5=One And One (Don't Make Three)
TTITLE6=His Latest Flame
TTITLE7=You Got Me Rollin'
TTITLE8=Two Headed Woman
TTITLE9=Angel In High Heels
TTITLE10=Give It To Me
TTITLE11=The Door Of Happiness
TTITLE12=Icy Blue
EXTD=
EXTT0=
EXTT1=
EXTT2=
EXTT3=
EXTT4=
EXTT5=
EXTT6=
EXTT7=
EXTT8=
EXTT9=
EXTT10=
EXTT11=
EXTT12=
PLAYORDER=
